<svg viewBox="571 351.5331 380 149.1439" width="5000" height="1962.419736842105" xmlns="http://www.w3.org/2000/svg" xmlns:xlink="http://www.w3.org/1999/xlink" preserveAspectRatio="none"><defs></defs><style>.companyName {fill:#000000;fill-opacity:1;}.icon1 {fill:#35C0ED;fill-opacity:1;}.icon2 {fill:#9AEBA6;fill-opacity:1;}.icon3 {fill:#2F90B0;fill-opacity:1;}</style><g opacity="1" transform="rotate(0 571 467.2808)">
<svg width="380" height="33.3962" x="571" y="467.2808" version="1.1" preserveAspectRatio="none" viewBox="2.16 -33.2 382.32 33.60000000000001">
  <g transform="matrix(1 0 0 1 0 0)" class="companyName"><path d="M2.76 0L2.16-10.20L3.72-10.20Q4.28-6.40 6.76-4.22Q9.24-2.04 12.88-2.04L12.88-2.04Q14.36-2.04 15.60-2.40Q16.84-2.76 17.72-3.42Q18.60-4.08 19.08-4.98Q19.56-5.88 19.56-7L19.56-7Q19.56-7.96 19.26-8.66Q18.96-9.36 18.12-10.02Q17.28-10.68 15.82-11.36Q14.36-12.04 12.04-12.92L12.04-12.92Q7.36-14.72 5.12-17.10Q2.88-19.48 2.88-22.72L2.88-22.72Q2.88-24.60 3.60-26.16Q4.32-27.72 5.62-28.84Q6.92-29.96 8.74-30.58Q10.56-31.20 12.76-31.20L12.76-31.20Q14.80-31.20 16.60-30.56Q18.40-29.92 20.16-28.64L20.16-28.64L20.88-30.64L21.84-30.64L22.28-22L20.72-22Q19.76-25.28 17.72-27.02Q15.68-28.76 13-28.76L13-28.76Q10.52-28.76 8.98-27.54Q7.44-26.32 7.44-24.40L7.44-24.40Q7.44-23.56 7.72-22.90Q8-22.24 8.76-21.64Q9.52-21.04 10.84-20.42Q12.16-19.80 14.24-19.04L14.24-19.04Q17.04-17.96 19.02-16.86Q21-15.76 22.26-14.50Q23.52-13.24 24.12-11.84Q24.72-10.44 24.72-8.76L24.72-8.76Q24.72-6.72 23.84-5.04Q22.96-3.36 21.38-2.16Q19.80-0.96 17.62-0.28Q15.44 0.40 12.80 0.40L12.80 0.40Q10.40 0.40 8.48-0.26Q6.56-0.92 4.52-2.40L4.52-2.40L3.72 0L2.76 0Z M42.84 0L42.84-1.60Q44.12-1.60 44.64-1.70Q45.16-1.80 45.16-2.12L45.16-2.12Q45.16-2.36 44.62-3.30Q44.08-4.24 43.24-5.48L43.24-5.48L40.20-10.04L38.20-8.12L38.20-6.56Q38.20-5 38.32-4.04Q38.44-3.08 38.74-2.54Q39.04-2 39.58-1.80Q40.12-1.60 40.96-1.60L40.96-1.60L40.96 0L29.16 0L29.16-1.60Q30.28-1.64 30.96-1.84Q31.64-2.04 32.04-2.54Q32.44-3.04 32.58-3.94Q32.72-4.84 32.72-6.28L32.72-6.28L32.72-23.24Q32.72-25.68 32.64-27.08Q32.56-28.48 32.22-29.18Q31.88-29.88 31.18-30.04Q30.48-30.20 29.28-30.20L29.28-30.20L29.28-31.68L38.20-33.20L38.20-10.96L42.04-14.60Q44.12-16.56 45-17.54Q45.88-18.52 45.88-18.96L45.88-18.96Q45.88-19.32 45.14-19.46Q44.40-19.60 42.40-19.60L42.40-19.60L42.40-21.20L53.32-21.20L53.32-19.60Q51.80-19.60 50.64-19.08Q49.48-18.56 48.12-17.28L48.12-17.28L44.24-13.64L51.16-3.84Q52.08-2.56 52.96-2.08Q53.84-1.60 55.28-1.60L55.28-1.60L55.28 0L42.84 0Z M67.36-21.60L67.36-6.56Q67.36-4.96 67.48-4Q67.60-3.04 67.96-2.52Q68.32-2 69-1.82Q69.68-1.64 70.84-1.60L70.84-1.60L70.84 0L58.24 0L58.24-1.60Q59.36-1.64 60.06-1.86Q60.76-2.08 61.14-2.58Q61.52-3.08 61.66-3.98Q61.80-4.88 61.80-6.28L61.80-6.28L61.80-11.20Q61.80-13.52 61.72-15.02Q61.64-16.52 61.52-17.08L61.52-17.08Q61.32-18.08 60.62-18.40Q59.92-18.72 58.08-18.72L58.08-18.72L58.08-20.08L67.36-21.60ZM61.48-30.08L61.48-30.08Q61.48-31.40 62.38-32.30Q63.28-33.20 64.56-33.20L64.56-33.20Q65.88-33.20 66.78-32.30Q67.68-31.40 67.68-30.08L67.68-30.08Q67.68-28.80 66.78-27.90Q65.88-27 64.56-27L64.56-27Q63.28-27 62.38-27.90Q61.48-28.80 61.48-30.08Z M83.80-12.04L83.80-6.52Q83.80-4.88 83.90-3.94Q84-3 84.34-2.50Q84.68-2 85.38-1.84Q86.08-1.68 87.28-1.60L87.28-1.60L87.28 0L74.68 0L74.68-1.60Q75.84-1.68 76.54-1.84Q77.24-2 77.62-2.48Q78-2.96 78.12-3.84Q78.24-4.72 78.24-6.24L78.24-6.24L78.24-11.24Q78.24-13.60 78.16-15.06Q78.08-16.52 77.96-17.04L77.96-17.04Q77.84-17.56 77.64-17.90Q77.44-18.24 77.04-18.42Q76.64-18.60 76.04-18.66Q75.44-18.72 74.52-18.72L74.52-18.72L74.52-20.08L82.24-21.60L82.76-18.08L82.92-18.08Q84.24-19.76 86.04-20.68Q87.84-21.60 90-21.60L90-21.60Q92.56-21.60 94.14-20.90Q95.72-20.20 96.96-18.56L96.96-18.56Q97.64-17.64 98.16-16.18Q98.68-14.72 98.68-12.16L98.68-12.16L98.68-6.52Q98.68-4.88 98.78-3.94Q98.88-3 99.22-2.50Q99.56-2 100.24-1.84Q100.92-1.68 102.08-1.60L102.08-1.60L102.08 0L89.56 0L89.56-1.60Q90.76-1.64 91.46-1.82Q92.16-2 92.52-2.48Q92.88-2.96 93-3.86Q93.12-4.76 93.12-6.24L93.12-6.24L93.12-11.68Q93.12-13.72 92.88-15.12Q92.64-16.52 92.10-17.38Q91.56-18.24 90.68-18.62Q89.80-19 88.48-19L88.48-19Q87.20-19 86.28-18.28Q85.36-17.56 84.68-16.28L84.68-16.28Q84.32-15.56 84.06-14.42Q83.80-13.28 83.80-12.04L83.80-12.04Z M114.88-12.04L114.88-6.52Q114.88-4.88 114.98-3.94Q115.08-3 115.42-2.50Q115.76-2 116.46-1.84Q117.16-1.68 118.36-1.60L118.36-1.60L118.36 0L105.76 0L105.76-1.60Q106.92-1.68 107.62-1.84Q108.32-2 108.70-2.48Q109.08-2.96 109.20-3.84Q109.32-4.72 109.32-6.24L109.32-6.24L109.32-11.24Q109.32-13.60 109.24-15.06Q109.16-16.52 109.04-17.04L109.04-17.04Q108.92-17.56 108.72-17.90Q108.52-18.24 108.12-18.42Q107.72-18.60 107.12-18.66Q106.52-18.72 105.60-18.72L105.60-18.72L105.60-20.08L113.32-21.60L113.84-18.08L114-18.08Q115.32-19.76 117.12-20.68Q118.92-21.60 121.08-21.60L121.08-21.60Q123.64-21.60 125.22-20.90Q126.80-20.20 128.04-18.56L128.04-18.56Q128.72-17.64 129.24-16.18Q129.76-14.72 129.76-12.16L129.76-12.16L129.76-6.52Q129.76-4.88 129.86-3.94Q129.96-3 130.30-2.50Q130.64-2 131.32-1.84Q132-1.68 133.16-1.60L133.16-1.60L133.16 0L120.64 0L120.64-1.60Q121.84-1.64 122.54-1.82Q123.24-2 123.60-2.48Q123.96-2.96 124.08-3.86Q124.20-4.76 124.20-6.24L124.20-6.24L124.20-11.68Q124.20-13.72 123.96-15.12Q123.72-16.52 123.18-17.38Q122.64-18.24 121.76-18.62Q120.88-19 119.56-19L119.56-19Q118.28-19 117.36-18.28Q116.44-17.56 115.76-16.28L115.76-16.28Q115.40-15.56 115.14-14.42Q114.88-13.28 114.88-12.04L114.88-12.04Z M156.16-5.12L157.28-3.72Q153.64 0.40 148.20 0.40L148.20 0.40Q145.72 0.40 143.70-0.38Q141.68-1.16 140.24-2.58Q138.80-4 138-5.96Q137.20-7.92 137.20-10.32L137.20-10.32Q137.20-12.80 138.04-14.86Q138.88-16.92 140.42-18.42Q141.96-19.92 144.06-20.76Q146.16-21.60 148.68-21.60L148.68-21.60Q152.92-21.60 155.28-19.32Q157.64-17.04 157.64-12.92L157.64-12.92Q157.64-12.28 157.44-12.14Q157.24-12 156.32-12L156.32-12L143.44-12Q143.28-11.64 143.28-10.68L143.28-10.68Q143.28-6.76 144.98-4.48Q146.68-2.20 149.60-2.20L149.60-2.20Q151.28-2.20 152.94-2.96Q154.60-3.72 156.16-5.12L156.16-5.12ZM143.72-14.24L149.52-14.24Q151.12-14.24 151.58-14.42Q152.04-14.60 152.04-15.28L152.04-15.28Q152.04-17.04 151.04-18.16Q150.04-19.28 148.52-19.28L148.52-19.28Q146.80-19.28 145.46-17.86Q144.12-16.44 143.72-14.24L143.72-14.24Z M171.40-8.12L171.40-6.20Q171.40-4.64 171.54-3.74Q171.68-2.84 172.12-2.36Q172.56-1.88 173.40-1.74Q174.24-1.60 175.64-1.60L175.64-1.60L175.64 0L162.28 0L162.28-1.60Q163.48-1.68 164.20-1.84Q164.92-2 165.28-2.48Q165.64-2.96 165.74-3.86Q165.84-4.76 165.84-6.28L165.84-6.28L165.84-11.16Q165.84-13.64 165.72-15.12Q165.60-16.60 165.20-17.40Q164.80-18.20 164.06-18.46Q163.32-18.72 162.12-18.72L162.12-18.72L162.12-20.12L170.12-21.60L170.76-17L170.92-17Q172-19.12 173.76-20.36Q175.52-21.60 177.48-21.60L177.48-21.60Q179-21.60 179.96-20.84Q180.92-20.08 180.92-18.92L180.92-18.92Q180.92-17.64 180.18-16.76Q179.44-15.88 178.16-15.88L178.16-15.88Q177.56-15.88 177.08-16.12Q176.60-16.36 176.22-16.66Q175.84-16.96 175.46-17.22Q175.08-17.48 174.68-17.48L174.68-17.48Q173.92-17.48 173.24-16.48Q172.56-15.48 172.12-13.80L172.12-13.80Q171.80-12.60 171.60-11.10Q171.40-9.60 171.40-8.12L171.40-8.12Z M214.28-6.92L213.36-9.32L202.04-9.32Q200.16-5.08 200.16-3.44L200.16-3.44Q200.16-2.24 201.06-1.92Q201.96-1.60 203.76-1.60L203.76-1.60L203.76 0L192.80 0L192.80-1.60Q193.76-1.72 194.46-1.92Q195.16-2.12 195.70-2.48Q196.24-2.84 196.64-3.42Q197.04-4 197.40-4.84L197.40-4.84L207.92-31.20L210.88-31.20L220.44-7.84Q221.28-5.80 221.86-4.64Q222.44-3.48 223.10-2.86Q223.76-2.24 224.62-2Q225.48-1.76 226.84-1.64L226.84-1.64L226.84 0L211.72 0L211.72-1.64Q213.64-1.72 214.48-2.04Q215.32-2.36 215.32-3.32L215.32-3.32Q215.32-3.88 215.04-4.76Q214.76-5.64 214.28-6.92L214.28-6.92ZM207.72-23.84L202.96-11.72L212.48-11.72L207.88-23.84L207.72-23.84Z M235.80 0.40L229.48-16.04Q229.04-17.20 228.64-17.90Q228.24-18.60 227.82-18.98Q227.40-19.36 226.90-19.48Q226.40-19.60 225.72-19.60L225.72-19.60L225.72-21.20L237.68-21.20L237.68-19.60Q236.68-19.60 236.10-19.52Q235.52-19.44 235.22-19.28Q234.92-19.12 234.84-18.86Q234.76-18.60 234.76-18.28L234.76-18.28Q234.76-17.76 234.96-17.08Q235.16-16.40 235.44-15.72L235.44-15.72L239.24-5.24L239.40-5.24L243.68-15.68Q243.96-16.36 244.12-16.90Q244.28-17.44 244.28-17.88L244.28-17.88Q244.28-18.76 243.68-19.16Q243.08-19.56 241.56-19.60L241.56-19.60L241.56-21.20L250.40-21.20L250.40-19.60Q249.32-19.60 248.54-19.04Q247.76-18.48 246.92-16.56L246.92-16.56L239.44 0.40L235.80 0.40Z M262.68-21.60L262.68-6.56Q262.68-4.96 262.80-4Q262.92-3.04 263.28-2.52Q263.64-2 264.32-1.82Q265-1.64 266.16-1.60L266.16-1.60L266.16 0L253.56 0L253.56-1.60Q254.68-1.64 255.38-1.86Q256.08-2.08 256.46-2.58Q256.84-3.08 256.98-3.98Q257.12-4.88 257.12-6.28L257.12-6.28L257.12-11.20Q257.12-13.52 257.04-15.02Q256.96-16.52 256.84-17.08L256.84-17.08Q256.64-18.08 255.94-18.40Q255.24-18.72 253.40-18.72L253.40-18.72L253.40-20.08L262.68-21.60ZM256.80-30.08L256.80-30.08Q256.80-31.40 257.70-32.30Q258.60-33.20 259.88-33.20L259.88-33.20Q261.20-33.20 262.10-32.30Q263-31.40 263-30.08L263-30.08Q263-28.80 262.10-27.90Q261.20-27 259.88-27L259.88-27Q258.60-27 257.70-27.90Q256.80-28.80 256.80-30.08Z M282.60-7.60L282.60-11.40Q279.24-9.88 277.54-8.58Q275.84-7.28 275.84-5.88L275.84-5.88Q275.84-4.72 276.48-4.04Q277.12-3.36 278.08-3.36L278.08-3.36Q279.04-3.36 279.88-3.70Q280.72-4.04 281.32-4.60Q281.92-5.16 282.26-5.94Q282.60-6.72 282.60-7.60L282.60-7.60ZM276.96-11.08L282.60-13.52L282.60-15.20Q282.60-17.52 281.78-18.58Q280.96-19.64 279.24-19.64L279.24-19.64Q278.08-19.64 277.48-19.02Q276.88-18.40 276.36-16.96L276.36-16.96Q276.00-15.96 275.34-15.40Q274.68-14.84 273.52-14.84L273.52-14.84Q272.40-14.84 271.80-15.52Q271.20-16.20 271.20-17.44L271.20-17.44Q271.20-19.36 273.30-20.48Q275.40-21.60 279.64-21.60L279.64-21.60Q284.12-21.60 286.04-19.98Q287.96-18.36 287.96-14.56L287.96-14.56L287.96-5.80Q287.96-2.40 289.32-2.40L289.32-2.40Q290.08-2.40 290.72-2.92L290.72-2.92L291.32-1.76Q290.76-0.76 289.58-0.18Q288.40 0.40 286.92 0.40L286.92 0.40Q285.08 0.40 284.12-0.72Q283.16-1.84 283.16-3.88L283.16-3.88L282.96-3.88Q281.80-1.80 279.96-0.72Q278.12 0.36 275.76 0.36L275.76 0.36Q273.24 0.36 271.72-1.06Q270.20-2.48 270.20-4.76L270.20-4.76Q270.20-6.52 271.76-8.06Q273.32-9.60 276.96-11.08L276.96-11.08Z M297.72-19L294.80-19L294.80-20.80Q297.20-21.48 298.82-22.86Q300.44-24.24 301.24-26.04L301.24-26.04L303.28-26.04L303.28-21.20L307.88-21.20L307.88-19L303.28-19L303.28-6.72Q303.28-4.24 303.82-3.20Q304.36-2.16 305.64-2.16L305.64-2.16Q307.20-2.16 308-3.60L308-3.60L308.84-2.44Q307.72 0.40 303.56 0.40L303.56 0.40Q300.80 0.40 299.26-0.88Q297.72-2.16 297.72-4.48L297.72-4.48L297.72-19Z M321.36-21.60L321.36-6.56Q321.36-4.96 321.48-4Q321.60-3.04 321.96-2.52Q322.32-2 323.00-1.82Q323.68-1.64 324.84-1.60L324.84-1.60L324.84 0L312.24 0L312.24-1.60Q313.36-1.64 314.06-1.86Q314.76-2.08 315.14-2.58Q315.52-3.08 315.66-3.98Q315.80-4.88 315.80-6.28L315.80-6.28L315.80-11.20Q315.80-13.52 315.72-15.02Q315.64-16.52 315.52-17.08L315.52-17.08Q315.32-18.08 314.62-18.40Q313.92-18.72 312.08-18.72L312.08-18.72L312.08-20.08L321.36-21.60ZM315.48-30.08L315.48-30.08Q315.48-31.40 316.38-32.30Q317.28-33.20 318.56-33.20L318.56-33.20Q319.88-33.20 320.78-32.30Q321.68-31.40 321.68-30.08L321.68-30.08Q321.68-28.80 320.78-27.90Q319.88-27 318.56-27L318.56-27Q317.28-27 316.38-27.90Q315.48-28.80 315.48-30.08Z M340.64-21.60L340.64-21.60Q343.04-21.60 345.18-20.78Q347.32-19.96 348.94-18.52Q350.56-17.08 351.50-15.10Q352.44-13.12 352.44-10.76L352.44-10.76Q352.44-8.32 351.50-6.28Q350.56-4.24 348.94-2.76Q347.32-1.28 345.18-0.44Q343.04 0.40 340.64 0.40L340.64 0.40Q338.28 0.40 336.16-0.42Q334.04-1.24 332.44-2.72Q330.84-4.20 329.92-6.26Q329.00-8.32 329.00-10.76L329.00-10.76Q329.00-13.12 329.92-15.12Q330.84-17.12 332.44-18.56Q334.04-20 336.16-20.80Q338.28-21.60 340.64-21.60ZM340.64-19.28L340.64-19.28Q339.44-19.28 338.44-18.66Q337.44-18.04 336.74-16.92Q336.04-15.80 335.66-14.22Q335.28-12.64 335.28-10.72L335.28-10.72Q335.28-8.72 335.66-7.12Q336.04-5.52 336.74-4.40Q337.44-3.28 338.42-2.66Q339.40-2.04 340.64-2.04L340.64-2.04Q341.88-2.04 342.90-2.66Q343.92-3.28 344.64-4.42Q345.36-5.56 345.76-7.16Q346.16-8.76 346.16-10.72L346.16-10.72Q346.16-12.64 345.76-14.20Q345.36-15.76 344.64-16.90Q343.92-18.04 342.90-18.66Q341.88-19.28 340.64-19.28Z M366.20-12.04L366.20-6.52Q366.20-4.88 366.30-3.94Q366.40-3 366.74-2.50Q367.08-2 367.78-1.84Q368.48-1.68 369.68-1.60L369.68-1.60L369.68 0L357.08 0L357.08-1.60Q358.24-1.68 358.94-1.84Q359.64-2 360.02-2.48Q360.40-2.96 360.52-3.84Q360.64-4.72 360.64-6.24L360.64-6.24L360.64-11.24Q360.64-13.60 360.56-15.06Q360.48-16.52 360.36-17.04L360.36-17.04Q360.24-17.56 360.04-17.90Q359.84-18.24 359.44-18.42Q359.04-18.60 358.44-18.66Q357.84-18.72 356.92-18.72L356.92-18.72L356.92-20.08L364.64-21.60L365.16-18.08L365.32-18.08Q366.64-19.76 368.44-20.68Q370.24-21.60 372.40-21.60L372.40-21.60Q374.96-21.60 376.54-20.90Q378.12-20.20 379.36-18.56L379.36-18.56Q380.04-17.64 380.56-16.18Q381.08-14.72 381.08-12.16L381.08-12.16L381.08-6.52Q381.08-4.88 381.18-3.94Q381.28-3 381.62-2.50Q381.96-2 382.64-1.84Q383.32-1.68 384.48-1.60L384.48-1.60L384.48 0L371.96 0L371.96-1.60Q373.16-1.64 373.86-1.82Q374.56-2 374.92-2.48Q375.28-2.96 375.40-3.86Q375.52-4.76 375.52-6.24L375.52-6.24L375.52-11.68Q375.52-13.72 375.28-15.12Q375.04-16.52 374.50-17.38Q373.96-18.24 373.08-18.62Q372.20-19 370.88-19L370.88-19Q369.60-19 368.68-18.28Q367.76-17.56 367.08-16.28L367.08-16.28Q366.72-15.56 366.46-14.42Q366.20-13.28 366.20-12.04L366.20-12.04Z"/></g>
</svg>
</g><g opacity="1" transform="rotate(0 626.6927 351.5331)">
<svg width="268.6146" height="101.0704" x="626.6927" y="351.5331" version="1.1" preserveAspectRatio="none" viewBox="5 33.06800079345703 90 33.86399841308594">
  <g transform="matrix(1 0 0 1 0 0)" class="icon1"><g><path d="M59.344,44.511c-8.378,4.7-8.173,10.319-8.173,10.319s2.756-6.067,23.089-9.399C94.593,42.098,95,33.069,95,33.069   C85.192,38.381,67.722,39.811,59.344,44.511z"></path><path d="M50.507,61.271c0,0,3.445-3.714,17.955-6.092c14.51-2.378,16.031-9.699,16.031-9.699   c-6.999,3.791-20.891,4.737-26.975,7.895C50.622,56.955,50.507,61.271,50.507,61.271z"></path><path d="M55.638,61.271c-4.944,2.567-4.467,5.66-4.467,5.66s1.774-1.976,12.177-3.681c10.403-1.705,9.738-6.786,9.738-6.786   C68.067,59.183,60,59.006,55.638,61.271z"></path><path d="M48.829,54.83c0,0,0.204-5.619-8.173-10.319c-8.378-4.7-25.848-6.13-35.656-11.443c0,0,0.407,9.03,20.74,12.362   C46.073,48.763,48.829,54.83,48.829,54.83z"></path><path d="M42.481,53.375c-6.084-3.158-19.976-4.104-26.975-7.895c0,0,1.521,7.321,16.031,9.699   c14.51,2.378,17.955,6.092,17.955,6.092S49.378,56.955,42.481,53.375z"></path><path d="M44.362,61.271c-4.362-2.264-12.43-2.088-17.447-4.806c0,0-0.664,5.081,9.738,6.786   c10.402,1.705,12.177,3.681,12.177,3.681S49.307,63.837,44.362,61.271z"></path></g></g>
</svg>
</g></svg>